<mxfile host="app.diagrams.net" modified="2024-06-27T13:56:16.263Z" agent="Mozilla/5.0 (Windows NT 10.0; Win64; x64) AppleWebKit/537.36 (KHTML, like Gecko) Chrome/126.0.0.0 Safari/537.36" etag="5vJ15DRU3yNBwSeFThUp" version="24.6.3" type="github">
  <diagram name="Page-1" id="pan1mzJFetRBhNDHFgHf">
    <mxGraphModel dx="2694" dy="1264" grid="1" gridSize="10" guides="1" tooltips="1" connect="1" arrows="1" fold="1" page="1" pageScale="1" pageWidth="1654" pageHeight="1169" math="0" shadow="0">
      <root>
        <mxCell id="0" />
        <mxCell id="1" parent="0" />
        <mxCell id="4h5Hu0jHjvkrGWykz8Xl-1" value="Utilisateur" style="swimlane;whiteSpace=wrap;html=1;fontFamily=Georgia;" vertex="1" parent="1">
          <mxGeometry x="357" y="175" width="362.5" height="944" as="geometry" />
        </mxCell>
        <mxCell id="4h5Hu0jHjvkrGWykz8Xl-2" value="" style="ellipse;whiteSpace=wrap;html=1;aspect=fixed;fontFamily=Georgia;fillColor=#000000;" vertex="1" parent="4h5Hu0jHjvkrGWykz8Xl-1">
          <mxGeometry x="24" y="52" width="24" height="24" as="geometry" />
        </mxCell>
        <mxCell id="4h5Hu0jHjvkrGWykz8Xl-3" value="" style="endArrow=none;html=1;rounded=0;fontFamily=Georgia;fontSize=16;startSize=14;endSize=14;sourcePerimeterSpacing=8;targetPerimeterSpacing=8;curved=1;exitX=1;exitY=0.5;exitDx=0;exitDy=0;entryX=0;entryY=0.484;entryDx=0;entryDy=0;entryPerimeter=0;" edge="1" parent="4h5Hu0jHjvkrGWykz8Xl-1" source="4h5Hu0jHjvkrGWykz8Xl-2" target="4h5Hu0jHjvkrGWykz8Xl-4">
          <mxGeometry width="50" height="50" relative="1" as="geometry">
            <mxPoint x="70" y="47.410000000000025" as="sourcePoint" />
            <mxPoint x="80" y="65" as="targetPoint" />
          </mxGeometry>
        </mxCell>
        <mxCell id="4h5Hu0jHjvkrGWykz8Xl-4" value="Cliquer sur la fonctionnalité d&#39;édition de fiche de suivi" style="shape=ext;double=1;rounded=1;whiteSpace=wrap;html=1;fontFamily=Georgia;" vertex="1" parent="4h5Hu0jHjvkrGWykz8Xl-1">
          <mxGeometry x="83" y="33" width="199" height="64" as="geometry" />
        </mxCell>
        <mxCell id="4h5Hu0jHjvkrGWykz8Xl-5" value="Sélectionner la mission à éditer" style="shape=ext;double=1;rounded=1;whiteSpace=wrap;html=1;fontFamily=Georgia;" vertex="1" parent="4h5Hu0jHjvkrGWykz8Xl-1">
          <mxGeometry x="81" y="151" width="200" height="41" as="geometry" />
        </mxCell>
        <mxCell id="4h5Hu0jHjvkrGWykz8Xl-6" value="Cliquer sur la l&#39;option d&#39;exportation" style="shape=ext;double=1;rounded=1;whiteSpace=wrap;html=1;fontFamily=Georgia;" vertex="1" parent="4h5Hu0jHjvkrGWykz8Xl-1">
          <mxGeometry x="81" y="278" width="200" height="55" as="geometry" />
        </mxCell>
        <mxCell id="4h5Hu0jHjvkrGWykz8Xl-7" value="Choisir le format auquel on veut exporter la fiche de suivi" style="shape=ext;double=1;rounded=1;whiteSpace=wrap;html=1;fontFamily=Georgia;" vertex="1" parent="4h5Hu0jHjvkrGWykz8Xl-1">
          <mxGeometry x="79" y="472" width="200" height="55" as="geometry" />
        </mxCell>
        <mxCell id="4h5Hu0jHjvkrGWykz8Xl-59" value="" style="shape=ext;double=1;rounded=1;whiteSpace=wrap;html=1;fontFamily=Architects Daughter;fontSource=https%3A%2F%2Ffonts.googleapis.com%2Fcss%3Ffamily%3DArchitects%2BDaughter;fillColor=#120d0d;fontSize=8;" vertex="1" parent="4h5Hu0jHjvkrGWykz8Xl-1">
          <mxGeometry x="32.25" y="564" width="299.75" height="4" as="geometry" />
        </mxCell>
        <mxCell id="4h5Hu0jHjvkrGWykz8Xl-46" value="Exporter Excel" style="shape=ext;double=1;rounded=1;whiteSpace=wrap;html=1;fontFamily=Georgia;" vertex="1" parent="4h5Hu0jHjvkrGWykz8Xl-1">
          <mxGeometry x="9" y="616" width="88" height="36" as="geometry" />
        </mxCell>
        <mxCell id="4h5Hu0jHjvkrGWykz8Xl-79" value="Exporter Word" style="shape=ext;double=1;rounded=1;whiteSpace=wrap;html=1;fontFamily=Georgia;" vertex="1" parent="4h5Hu0jHjvkrGWykz8Xl-1">
          <mxGeometry x="131" y="616" width="88" height="36" as="geometry" />
        </mxCell>
        <mxCell id="4h5Hu0jHjvkrGWykz8Xl-80" value="Exporter en PDF" style="shape=ext;double=1;rounded=1;whiteSpace=wrap;html=1;fontFamily=Georgia;" vertex="1" parent="4h5Hu0jHjvkrGWykz8Xl-1">
          <mxGeometry x="252" y="616" width="88" height="36" as="geometry" />
        </mxCell>
        <mxCell id="4h5Hu0jHjvkrGWykz8Xl-60" value="" style="endArrow=classic;html=1;rounded=0;fontFamily=Architects Daughter;fontSource=https%3A%2F%2Ffonts.googleapis.com%2Fcss%3Ffamily%3DArchitects%2BDaughter;fontSize=16;startSize=14;endSize=14;sourcePerimeterSpacing=8;targetPerimeterSpacing=8;edgeStyle=orthogonalEdgeStyle;" edge="1" parent="4h5Hu0jHjvkrGWykz8Xl-1">
          <mxGeometry width="50" height="50" relative="1" as="geometry">
            <mxPoint x="183" y="525" as="sourcePoint" />
            <mxPoint x="173" y="564" as="targetPoint" />
          </mxGeometry>
        </mxCell>
        <mxCell id="4h5Hu0jHjvkrGWykz8Xl-76" style="edgeStyle=none;curved=1;rounded=0;orthogonalLoop=1;jettySize=auto;html=1;exitX=1;exitY=0.5;exitDx=0;exitDy=0;fontFamily=Georgia;fontSize=16;startSize=14;endArrow=classicThin;endSize=14;sourcePerimeterSpacing=8;targetPerimeterSpacing=8;endFill=1;" edge="1" parent="4h5Hu0jHjvkrGWykz8Xl-1">
          <mxGeometry relative="1" as="geometry">
            <mxPoint x="173" y="615" as="targetPoint" />
            <mxPoint x="172.9999999999999" y="567" as="sourcePoint" />
          </mxGeometry>
        </mxCell>
        <mxCell id="4h5Hu0jHjvkrGWykz8Xl-8" value="Système" style="swimlane;whiteSpace=wrap;html=1;fontFamily=Georgia;" vertex="1" parent="1">
          <mxGeometry x="958" y="176" width="442" height="944" as="geometry" />
        </mxCell>
        <mxCell id="4h5Hu0jHjvkrGWykz8Xl-9" value="afficher la page contenant la liste des missions ayant pour statut &lt;b&gt;(la liste des statut est indéfini)&lt;/b&gt;" style="shape=ext;double=1;rounded=1;whiteSpace=wrap;html=1;fontFamily=Georgia;" vertex="1" parent="4h5Hu0jHjvkrGWykz8Xl-8">
          <mxGeometry x="80" y="70" width="240" height="55" as="geometry" />
        </mxCell>
        <mxCell id="4h5Hu0jHjvkrGWykz8Xl-10" value="Afficher la page d&#39;édition d&#39;une fiche de suivi avec les informations adéquates" style="shape=ext;double=1;rounded=1;whiteSpace=wrap;html=1;fontFamily=Georgia;" vertex="1" parent="4h5Hu0jHjvkrGWykz8Xl-8">
          <mxGeometry x="80" y="233" width="240" height="55" as="geometry" />
        </mxCell>
        <mxCell id="4h5Hu0jHjvkrGWykz8Xl-14" style="edgeStyle=none;curved=1;rounded=0;orthogonalLoop=1;jettySize=auto;html=1;exitX=0.5;exitY=1;exitDx=0;exitDy=0;fontFamily=Georgia;fontSize=16;startSize=14;endArrow=none;endSize=14;sourcePerimeterSpacing=8;targetPerimeterSpacing=8;endFill=0;strokeColor=#FF3333;" edge="1" parent="4h5Hu0jHjvkrGWykz8Xl-8">
          <mxGeometry relative="1" as="geometry">
            <mxPoint x="300" y="474" as="targetPoint" />
            <mxPoint x="300" y="458" as="sourcePoint" />
          </mxGeometry>
        </mxCell>
        <mxCell id="4h5Hu0jHjvkrGWykz8Xl-16" value="afficher la liste des formats auxquels on peut exporter la fiche&amp;nbsp;" style="shape=ext;double=1;rounded=1;whiteSpace=wrap;html=1;fontFamily=Georgia;" vertex="1" parent="4h5Hu0jHjvkrGWykz8Xl-8">
          <mxGeometry x="80" y="423" width="240" height="55" as="geometry" />
        </mxCell>
        <mxCell id="4h5Hu0jHjvkrGWykz8Xl-35" value="" style="ellipse;whiteSpace=wrap;html=1;aspect=fixed;fontFamily=Georgia;fillColor=none;" vertex="1" parent="4h5Hu0jHjvkrGWykz8Xl-8">
          <mxGeometry x="197" y="872" width="46" height="46" as="geometry" />
        </mxCell>
        <mxCell id="4h5Hu0jHjvkrGWykz8Xl-36" value="" style="ellipse;whiteSpace=wrap;html=1;aspect=fixed;fontFamily=Georgia;fillColor=#000000;" vertex="1" parent="4h5Hu0jHjvkrGWykz8Xl-8">
          <mxGeometry x="206" y="881" width="28" height="28" as="geometry" />
        </mxCell>
        <mxCell id="4h5Hu0jHjvkrGWykz8Xl-39" value="Télécharger le fichier sur le terminal de l&#39;utilisateur" style="shape=ext;double=1;rounded=1;whiteSpace=wrap;html=1;fontFamily=Georgia;" vertex="1" parent="4h5Hu0jHjvkrGWykz8Xl-8">
          <mxGeometry x="92" y="674" width="240" height="55" as="geometry" />
        </mxCell>
        <mxCell id="4h5Hu0jHjvkrGWykz8Xl-56" style="edgeStyle=orthogonalEdgeStyle;rounded=0;orthogonalLoop=1;jettySize=auto;html=1;exitX=1;exitY=0.5;exitDx=0;exitDy=0;fontFamily=Architects Daughter;fontSource=https%3A%2F%2Ffonts.googleapis.com%2Fcss%3Ffamily%3DArchitects%2BDaughter;fontSize=16;startSize=14;endArrow=classicThin;endSize=14;sourcePerimeterSpacing=8;targetPerimeterSpacing=8;entryX=0.5;entryY=0;entryDx=0;entryDy=0;endFill=1;" edge="1" parent="4h5Hu0jHjvkrGWykz8Xl-8">
          <mxGeometry relative="1" as="geometry">
            <mxPoint x="202.99999999999955" y="426" as="targetPoint" />
            <mxPoint x="-317" y="317.5000000000002" as="sourcePoint" />
            <Array as="points">
              <mxPoint x="-318" y="316" />
              <mxPoint x="203" y="316" />
            </Array>
          </mxGeometry>
        </mxCell>
        <mxCell id="4h5Hu0jHjvkrGWykz8Xl-81" style="edgeStyle=none;curved=1;rounded=0;orthogonalLoop=1;jettySize=auto;html=1;exitX=0.5;exitY=1;exitDx=0;exitDy=0;fontFamily=Georgia;fontSize=16;startSize=14;endArrow=classicThin;endSize=14;sourcePerimeterSpacing=8;targetPerimeterSpacing=8;endFill=1;entryX=0.467;entryY=0.023;entryDx=0;entryDy=0;entryPerimeter=0;" edge="1" parent="4h5Hu0jHjvkrGWykz8Xl-8" source="4h5Hu0jHjvkrGWykz8Xl-39" target="4h5Hu0jHjvkrGWykz8Xl-94">
          <mxGeometry relative="1" as="geometry">
            <mxPoint x="219.65999999999985" y="854" as="targetPoint" />
            <mxPoint x="219.40999999999985" y="785" as="sourcePoint" />
          </mxGeometry>
        </mxCell>
        <mxCell id="4h5Hu0jHjvkrGWykz8Xl-95" value="" style="edgeStyle=none;curved=1;rounded=0;orthogonalLoop=1;jettySize=auto;html=1;fontFamily=Georgia;fontSize=16;startSize=14;endArrow=classicThin;endSize=14;sourcePerimeterSpacing=8;targetPerimeterSpacing=8;endFill=1;entryX=0.5;entryY=0;entryDx=0;entryDy=0;exitX=0.5;exitY=1;exitDx=0;exitDy=0;" edge="1" parent="4h5Hu0jHjvkrGWykz8Xl-8" source="4h5Hu0jHjvkrGWykz8Xl-94" target="4h5Hu0jHjvkrGWykz8Xl-35">
          <mxGeometry relative="1" as="geometry">
            <mxPoint x="1177.6599999999999" y="1030" as="targetPoint" />
            <mxPoint x="512" y="774" as="sourcePoint" />
          </mxGeometry>
        </mxCell>
        <mxCell id="4h5Hu0jHjvkrGWykz8Xl-94" value="Afficher un message de succès à l&#39;utilisateur après l&#39;exportation" style="shape=ext;double=1;rounded=1;whiteSpace=wrap;html=1;fontFamily=Georgia;" vertex="1" parent="4h5Hu0jHjvkrGWykz8Xl-8">
          <mxGeometry x="100" y="779" width="240" height="55" as="geometry" />
        </mxCell>
        <mxCell id="4h5Hu0jHjvkrGWykz8Xl-40" value="" style="endArrow=classic;html=1;rounded=0;fontFamily=Georgia;fontSize=16;startSize=14;endSize=14;sourcePerimeterSpacing=8;targetPerimeterSpacing=8;strokeColor=default;endFill=1;edgeStyle=orthogonalEdgeStyle;" edge="1" parent="1">
          <mxGeometry width="50" height="50" relative="1" as="geometry">
            <mxPoint x="638" y="217" as="sourcePoint" />
            <mxPoint x="1198" y="247" as="targetPoint" />
            <Array as="points">
              <mxPoint x="1198" y="217" />
            </Array>
          </mxGeometry>
        </mxCell>
        <mxCell id="4h5Hu0jHjvkrGWykz8Xl-42" value="" style="endArrow=classic;html=1;rounded=0;fontFamily=Georgia;fontSize=16;startSize=14;endSize=14;sourcePerimeterSpacing=8;targetPerimeterSpacing=8;edgeStyle=orthogonalEdgeStyle;exitX=0;exitY=0.25;exitDx=0;exitDy=0;" edge="1" parent="1" source="4h5Hu0jHjvkrGWykz8Xl-16">
          <mxGeometry width="50" height="50" relative="1" as="geometry">
            <mxPoint x="1029" y="616" as="sourcePoint" />
            <mxPoint x="519" y="646" as="targetPoint" />
            <Array as="points">
              <mxPoint x="1038" y="600" />
              <mxPoint x="519" y="600" />
            </Array>
          </mxGeometry>
        </mxCell>
        <mxCell id="4h5Hu0jHjvkrGWykz8Xl-43" style="edgeStyle=orthogonalEdgeStyle;rounded=0;orthogonalLoop=1;jettySize=auto;html=1;exitX=0.5;exitY=1;exitDx=0;exitDy=0;entryX=1;entryY=0.25;entryDx=0;entryDy=0;fontFamily=Georgia;fontSize=16;startSize=14;endArrow=classic;endSize=14;sourcePerimeterSpacing=8;targetPerimeterSpacing=8;endFill=1;" edge="1" parent="1" target="4h5Hu0jHjvkrGWykz8Xl-5" source="4h5Hu0jHjvkrGWykz8Xl-9">
          <mxGeometry relative="1" as="geometry">
            <mxPoint x="1080.9999999999995" y="311" as="sourcePoint" />
            <mxPoint x="639" y="310.25" as="targetPoint" />
            <Array as="points">
              <mxPoint x="1160" y="299" />
              <mxPoint x="1160" y="337" />
            </Array>
          </mxGeometry>
        </mxCell>
        <mxCell id="4h5Hu0jHjvkrGWykz8Xl-48" value="&lt;font style=&quot;&quot; size=&quot;1&quot;&gt;&lt;b style=&quot;font-size: 24px;&quot;&gt;Diagramme d&#39;activité : Edition de la fiche de suivi d&#39;une Mission&lt;/b&gt;&lt;/font&gt;" style="text;html=1;align=center;verticalAlign=middle;resizable=0;points=[];autosize=1;strokeColor=none;fillColor=none;fontSize=20;fontFamily=Georgia;labelBackgroundColor=default;" vertex="1" parent="1">
          <mxGeometry x="446" y="42" width="810" height="40" as="geometry" />
        </mxCell>
        <mxCell id="4h5Hu0jHjvkrGWykz8Xl-49" value="&lt;b&gt;&lt;font style=&quot;font-size: 22px;&quot;&gt;Notes&lt;/font&gt;&lt;/b&gt;&lt;div&gt;&lt;br&gt;&lt;/div&gt;&lt;div style=&quot;font-size: 19px;&quot;&gt;Le statut que doit avoir une&amp;nbsp;&lt;/div&gt;&lt;div style=&quot;font-size: 19px;&quot;&gt;mission pour être éditable dans&lt;/div&gt;&lt;div style=&quot;font-size: 19px;&quot;&gt;une fiche de suivi est &lt;span style=&quot;background-color: initial;&quot;&gt;encore&amp;nbsp;&lt;/span&gt;&lt;/div&gt;&lt;div style=&quot;font-size: 19px;&quot;&gt;&lt;span style=&quot;background-color: initial;&quot;&gt;indéterminé&lt;/span&gt;&lt;/div&gt;&lt;div style=&quot;font-size: 19px;&quot;&gt;&lt;br&gt;&lt;/div&gt;&lt;div style=&quot;font-size: 19px;&quot;&gt;&lt;font style=&quot;font-size: 19px;&quot;&gt;Le système comprend&lt;/font&gt;&lt;/div&gt;&lt;div style=&quot;font-size: 19px;&quot;&gt;&lt;font style=&quot;font-size: 19px;&quot;&gt;l&#39;application frontend,&lt;/font&gt;&lt;/div&gt;&lt;div style=&quot;font-size: 19px;&quot;&gt;&lt;font style=&quot;font-size: 19px;&quot;&gt;l&#39;application API et&amp;nbsp;&lt;/font&gt;&lt;/div&gt;&lt;div style=&quot;font-size: 19px;&quot;&gt;&lt;font style=&quot;font-size: 19px;&quot;&gt;la base de données&lt;/font&gt;&lt;/div&gt;" style="text;html=1;align=left;verticalAlign=middle;resizable=0;points=[];autosize=1;strokeColor=none;fillColor=none;fontSize=20;fontFamily=Georgia;" vertex="1" parent="1">
          <mxGeometry x="40" y="839" width="290" height="270" as="geometry" />
        </mxCell>
        <mxCell id="4h5Hu0jHjvkrGWykz8Xl-50" style="edgeStyle=orthogonalEdgeStyle;rounded=0;orthogonalLoop=1;jettySize=auto;html=1;exitX=0;exitY=0.5;exitDx=0;exitDy=0;entryX=0.5;entryY=0;entryDx=0;entryDy=0;fontFamily=Georgia;fontSize=16;startSize=14;endArrow=classicThin;endSize=14;sourcePerimeterSpacing=8;targetPerimeterSpacing=8;endFill=1;" edge="1" parent="1" source="4h5Hu0jHjvkrGWykz8Xl-10" target="4h5Hu0jHjvkrGWykz8Xl-6">
          <mxGeometry relative="1" as="geometry">
            <Array as="points">
              <mxPoint x="1038" y="424" />
              <mxPoint x="538" y="424" />
            </Array>
          </mxGeometry>
        </mxCell>
        <mxCell id="4h5Hu0jHjvkrGWykz8Xl-51" style="edgeStyle=none;curved=1;rounded=0;orthogonalLoop=1;jettySize=auto;html=1;exitX=1;exitY=0.75;exitDx=0;exitDy=0;fontFamily=Georgia;fontSize=16;startSize=14;endArrow=classicThin;endSize=14;sourcePerimeterSpacing=8;targetPerimeterSpacing=8;endFill=1;strokeColor=none;" edge="1" parent="1" source="4h5Hu0jHjvkrGWykz8Xl-5">
          <mxGeometry relative="1" as="geometry">
            <mxPoint x="1030" y="330" as="targetPoint" />
          </mxGeometry>
        </mxCell>
        <mxCell id="4h5Hu0jHjvkrGWykz8Xl-52" style="edgeStyle=orthogonalEdgeStyle;rounded=0;orthogonalLoop=1;jettySize=auto;html=1;exitX=1;exitY=0.75;exitDx=0;exitDy=0;entryX=0.5;entryY=0;entryDx=0;entryDy=0;fontFamily=Georgia;fontSize=16;startSize=14;endArrow=classicThin;endSize=14;sourcePerimeterSpacing=8;targetPerimeterSpacing=8;endFill=1;" edge="1" parent="1" source="4h5Hu0jHjvkrGWykz8Xl-5" target="4h5Hu0jHjvkrGWykz8Xl-10">
          <mxGeometry relative="1" as="geometry">
            <Array as="points">
              <mxPoint x="636" y="360" />
              <mxPoint x="1157" y="360" />
            </Array>
          </mxGeometry>
        </mxCell>
        <mxCell id="4h5Hu0jHjvkrGWykz8Xl-85" style="edgeStyle=none;curved=1;rounded=0;orthogonalLoop=1;jettySize=auto;html=1;exitX=1;exitY=0.5;exitDx=0;exitDy=0;fontFamily=Georgia;fontSize=16;startSize=14;endArrow=classicThin;endSize=14;sourcePerimeterSpacing=8;targetPerimeterSpacing=8;endFill=1;fontStyle=1;entryX=-0.01;entryY=0.538;entryDx=0;entryDy=0;entryPerimeter=0;" edge="1" parent="1" source="4h5Hu0jHjvkrGWykz8Xl-90" target="4h5Hu0jHjvkrGWykz8Xl-39">
          <mxGeometry relative="1" as="geometry">
            <mxPoint x="1340.25" y="813" as="targetPoint" />
            <mxPoint x="1340" y="744" as="sourcePoint" />
          </mxGeometry>
        </mxCell>
        <mxCell id="4h5Hu0jHjvkrGWykz8Xl-87" style="edgeStyle=none;curved=1;rounded=0;orthogonalLoop=1;jettySize=auto;html=1;exitX=1;exitY=0.5;exitDx=0;exitDy=0;fontFamily=Georgia;fontSize=16;startSize=14;endArrow=classicThin;endSize=14;sourcePerimeterSpacing=8;targetPerimeterSpacing=8;endFill=1;" edge="1" parent="1">
          <mxGeometry relative="1" as="geometry">
            <mxPoint x="670" y="790" as="targetPoint" />
            <mxPoint x="669.9999999999999" y="742" as="sourcePoint" />
          </mxGeometry>
        </mxCell>
        <mxCell id="4h5Hu0jHjvkrGWykz8Xl-88" style="edgeStyle=none;curved=1;rounded=0;orthogonalLoop=1;jettySize=auto;html=1;exitX=1;exitY=0.5;exitDx=0;exitDy=0;fontFamily=Georgia;fontSize=16;startSize=14;endArrow=classicThin;endSize=14;sourcePerimeterSpacing=8;targetPerimeterSpacing=8;endFill=1;" edge="1" parent="1">
          <mxGeometry relative="1" as="geometry">
            <mxPoint x="401" y="790" as="targetPoint" />
            <mxPoint x="400.9999999999999" y="742" as="sourcePoint" />
          </mxGeometry>
        </mxCell>
        <mxCell id="4h5Hu0jHjvkrGWykz8Xl-90" value="" style="rhombus;whiteSpace=wrap;html=1;fontFamily=Architects Daughter;fontSource=https%3A%2F%2Ffonts.googleapis.com%2Fcss%3Ffamily%3DArchitects%2BDaughter;" vertex="1" parent="1">
          <mxGeometry x="800" y="840" width="80" height="80" as="geometry" />
        </mxCell>
        <mxCell id="4h5Hu0jHjvkrGWykz8Xl-91" value="" style="endArrow=classic;html=1;rounded=0;fontFamily=Architects Daughter;fontSource=https%3A%2F%2Ffonts.googleapis.com%2Fcss%3Ffamily%3DArchitects%2BDaughter;fontSize=16;startSize=14;endSize=14;sourcePerimeterSpacing=8;targetPerimeterSpacing=8;edgeStyle=orthogonalEdgeStyle;entryX=0.5;entryY=0;entryDx=0;entryDy=0;" edge="1" parent="1">
          <mxGeometry width="50" height="50" relative="1" as="geometry">
            <mxPoint x="699" y="811" as="sourcePoint" />
            <mxPoint x="839" y="840" as="targetPoint" />
          </mxGeometry>
        </mxCell>
        <mxCell id="4h5Hu0jHjvkrGWykz8Xl-92" value="" style="endArrow=classic;html=1;rounded=0;fontFamily=Architects Daughter;fontSource=https%3A%2F%2Ffonts.googleapis.com%2Fcss%3Ffamily%3DArchitects%2BDaughter;fontSize=16;startSize=14;endSize=14;sourcePerimeterSpacing=8;targetPerimeterSpacing=8;exitX=0.5;exitY=1;exitDx=0;exitDy=0;edgeStyle=orthogonalEdgeStyle;entryX=0.5;entryY=1;entryDx=0;entryDy=0;" edge="1" parent="1" source="4h5Hu0jHjvkrGWykz8Xl-46" target="4h5Hu0jHjvkrGWykz8Xl-90">
          <mxGeometry width="50" height="50" relative="1" as="geometry">
            <mxPoint x="650" y="810" as="sourcePoint" />
            <mxPoint x="840" y="930" as="targetPoint" />
            <Array as="points">
              <mxPoint x="410" y="950" />
              <mxPoint x="840" y="950" />
            </Array>
          </mxGeometry>
        </mxCell>
        <mxCell id="4h5Hu0jHjvkrGWykz8Xl-93" value="" style="endArrow=classic;html=1;rounded=0;fontFamily=Architects Daughter;fontSource=https%3A%2F%2Ffonts.googleapis.com%2Fcss%3Ffamily%3DArchitects%2BDaughter;fontSize=16;startSize=14;endSize=14;sourcePerimeterSpacing=8;targetPerimeterSpacing=8;exitX=0.5;exitY=1;exitDx=0;exitDy=0;entryX=0;entryY=0.5;entryDx=0;entryDy=0;edgeStyle=orthogonalEdgeStyle;" edge="1" parent="1" source="4h5Hu0jHjvkrGWykz8Xl-79" target="4h5Hu0jHjvkrGWykz8Xl-90">
          <mxGeometry width="50" height="50" relative="1" as="geometry">
            <mxPoint x="690" y="600" as="sourcePoint" />
            <mxPoint x="740" y="550" as="targetPoint" />
          </mxGeometry>
        </mxCell>
      </root>
    </mxGraphModel>
  </diagram>
</mxfile>
